<?xml version="1.0" standalone="no"?>
<!DOCTYPE svg PUBLIC "-//W3C//DTD SVG 20010904//EN" "http://www.w3.org/TR/2001/REC-SVG-20010904/DTD/svg10.dtd">
<!-- Created using Krita: https://krita.org -->
<svg xmlns="http://www.w3.org/2000/svg" 
    xmlns:xlink="http://www.w3.org/1999/xlink"
    xmlns:krita="http://krita.org/namespaces/svg/krita"
    xmlns:sodipodi="http://sodipodi.sourceforge.net/DTD/sodipodi-0.dtd"
    width="1284.48pt"
    height="484.56pt"
    viewBox="0 0 1284.48 484.56">
<defs/>
<path id="shape0" transform="matrix(0.72 0 0 0.72 166.461554025215 88.4848472606535)" fill="#ffffff" fill-rule="evenodd" stroke="#ffffff" stroke-width="0.25" stroke-linecap="butt" stroke-linejoin="round" d="M438.303 285.184C410.713 330.084 344.233 335.314 304.483 303.964C277.013 282.294 264.333 245.714 263.973 211.604C263.623 178.524 272.383 144.284 296.823 120.634C335.603 83.1044 407.063 86.7844 438.303 131.704C440.753 125.254 439.073 110.144 439.113 102.604C439.183 84.9344 439.123 67.2744 439.173 49.6044C439.193 40.5044 438.063 30.5644 439.833 21.6144C443.703 1.94438 467.203 -5.99562 483.483 4.94438C493.733 11.8244 494.053 23.4444 494.033 34.6044C494.013 50.9344 494.003 67.2744 494.013 83.6044C494.023 131.604 494.053 179.604 494.013 227.604C494.003 243.274 493.993 258.934 494.003 274.604C494.013 282.894 494.523 291.334 493.943 299.604C492.393 321.544 462.833 330.634 447.333 316.094C442.543 311.604 439.883 305.074 439.443 298.604C439.163 294.584 440.453 288.284 438.303 285.184ZM229.173 235.064C167.553 235.064 105.923 235.064 44.3034 235.064C44.4534 227.814 48.2034 219.744 51.6534 213.454C63.7534 191.434 86.5634 177.144 111.493 174.514C123.613 173.234 136.133 174.024 148.303 174.044C153.293 174.054 158.553 174.434 163.463 173.604C151.783 144.954 119.833 124.424 89.3034 123.764C67.6834 123.284 45.9934 131.594 29.2134 145.034C20.4234 152.084 12.6334 161.484 8.0934 171.854C6.0234 176.564 5.1334 181.604 3.3034 186.354C-0.526603 175.774 -0.346603 159.814 0.503397 148.604C3.4634 109.754 23.5034 75.6244 62.4634 64.3444C72.3734 61.4844 83.0434 60.8344 93.3034 61.0344C182.503 62.7444 248.133 148.334 229.173 235.064ZM1063.3 287.394C1056.4 298.994 1048.37 308.744 1036.14 314.954C991.493 337.644 925.903 313.824 921.823 259.604C921.303 252.674 921.523 245.464 922.963 238.654C931.643 197.684 981.943 192.284 1016.3 191.174C1023.3 190.954 1030.3 190.704 1037.3 190.434C1045.96 190.114 1054.65 190.424 1063.3 189.964C1064.21 183.044 1063.64 175.544 1062.56 168.644C1061.78 163.704 1060.64 158.554 1058.29 154.104C1052.42 143.004 1041.14 138.854 1029.3 137.924C1010.74 136.464 992.753 140.554 975.473 147.304C967.483 150.424 956.723 156.664 948.303 157.264C930.863 158.524 922.933 136.374 932.893 123.734C942.253 111.884 963.853 105.194 978.033 101.714C1020.23 91.3844 1081.32 88.4344 1105.4 132.994C1115.97 152.544 1116.18 175.974 1116.11 197.604C1116.05 217.274 1116.07 236.934 1116.11 256.604C1116.13 266.934 1116.16 277.274 1116.13 287.604C1116.12 293.534 1116.69 299.874 1114.77 305.574C1108.72 323.534 1082.69 328.174 1070.3 314.074C1061.89 304.494 1065.76 297.774 1063.3 287.394ZM626.303 247.004C629.773 242.394 631.593 235.954 633.743 230.584C636.393 223.944 639.313 217.414 642.003 210.784C651.563 187.234 661.313 163.634 671.493 140.334C677.633 126.314 681.483 106.934 695.413 99.1744C705.863 93.3544 720.273 96.3944 727.713 105.724C730.593 109.334 732.513 113.974 734.223 118.234C751.663 161.584 768.923 205.054 787.303 248.024C790.173 244.814 791.363 239.744 792.933 235.684C796.263 227.054 799.603 218.424 803.113 209.854C815.053 180.654 826.843 151.304 838.083 121.824C839.683 117.634 841.043 113.114 843.463 109.304C849.783 99.3444 861.383 93.6544 872.943 97.5144C875.873 98.4944 878.793 100.254 881.193 102.184C899.133 116.624 885.333 138.764 878.263 155.044C860.343 196.244 842.513 237.504 825.223 278.964C818.623 294.794 812.643 318.114 793.273 322.044C790.243 322.654 787.013 322.784 783.933 322.584C764.563 321.314 759.703 306.334 753.293 291.104C737.323 253.184 721.453 215.234 705.303 177.394C702.883 179.644 701.753 184.084 700.493 187.344C697.903 194.014 695.243 200.714 692.463 207.304C681.783 232.694 671.343 258.284 661.133 283.874C654.183 301.304 648.023 322.384 625.303 322.764C600.753 323.174 596.913 302.624 588.813 284.604C570.193 243.154 552.623 201.014 535.383 158.974C528.493 142.174 512.443 119.284 530.073 103.904C542.013 93.4944 561.933 93.2044 570.503 107.884C576.573 118.274 581.643 135.644 586.143 147.324C594.603 169.294 603.673 191.054 612.483 212.884C617.043 224.194 620.933 236.064 626.303 247.004ZM1261.3 249.804C1267.16 239.114 1271.54 227.594 1276.83 216.614C1288.9 191.534 1300.45 166.184 1312.16 140.934C1316.9 130.724 1320.79 119.864 1326.21 110.004C1334.94 94.1144 1356.85 91.4444 1368.8 105.604C1378.2 116.744 1373.62 127.514 1368.1 138.874C1362.1 151.224 1356.1 163.554 1350.17 175.934C1322.72 233.334 1294.28 290.264 1266.94 347.734C1261.57 359.014 1256.36 370.394 1250.77 381.574C1245.6 391.934 1240.75 401.714 1228.14 403.734C1212.6 406.224 1196.3 395.634 1197.63 378.604C1198.15 371.924 1202.21 365.724 1205 359.794C1210.41 348.294 1215.81 336.734 1221.57 325.404C1223.94 320.744 1231.89 307.654 1230.26 303.154C1228.18 297.444 1224.73 291.834 1222.04 286.364C1216.66 275.414 1211.27 264.454 1205.94 253.474C1190.59 221.814 1175.31 190.124 1159.89 158.504C1152.13 142.574 1134.3 117.754 1153.43 103.184C1156.35 100.964 1159.8 99.1444 1163.26 97.9644C1166.13 96.9744 1169.27 96.3544 1172.3 96.2544C1190.94 95.6344 1196.71 111.084 1203.13 125.314C1216.15 154.214 1229.39 183.004 1242.55 211.844C1246.5 220.504 1250.55 229.124 1254.72 237.684C1256.66 241.654 1258.24 246.634 1261.3 249.804ZM369.423 138.454C324.433 144.344 311.753 193.094 320.773 231.624C323.593 243.654 328.333 255.344 337.073 264.344C350.173 277.844 370.063 282.234 388.283 279.894C394.343 279.114 400.563 277.474 406.113 274.904C433.303 262.324 439.653 230.634 438.873 203.604C438.413 187.824 435.263 170.934 425.263 158.164C412.453 141.804 389.453 135.824 369.423 138.454ZM1063.3 220.364C1057.03 219.624 1050.62 220.164 1044.3 220.354C1020.44 221.064 974.163 218.254 976.073 253.604C976.303 257.934 977.343 262.194 979.363 266.034C990.813 287.764 1023.78 287.474 1041.64 274.474C1058.41 262.264 1065.78 240.684 1063.3 220.364Z" sodipodi:nodetypes="ccccccccccccccccccccccccccccccccccccccccccccccccccccccccccccccccccccccccccccccccccccccccccccccccccccccccccccccccccccccccc"/><path id="shape1" transform="matrix(0.72 0 0 0.72 122.195208989279 149.4)" fill="#02d8d9" fill-rule="evenodd" stroke="#02d8d9" stroke-width="0.25" stroke-linecap="butt" stroke-linejoin="round" d="M65.7944 0C64.9444 3.05 62.5044 5.71 60.8344 8.55C58.3644 12.73 55.8044 17.16 53.9144 21.64C46.7244 38.65 43.4344 56.54 43.4944 75C43.6244 112.28 64.3444 160.71 94.3344 183.97C104.894 192.16 117.834 197.6 130.874 200.22C149.504 203.96 168.884 202.42 187.784 202.54C193.364 202.58 199.084 202.18 204.634 202.88C232.334 206.35 253.924 222.39 269.374 244.86C273.494 250.86 277.644 257.38 279.784 264.37C274.414 266.79 265.804 265.28 259.784 265.26C244.454 265.23 229.114 265.29 213.784 265.29C196.784 265.28 179.784 265.27 162.784 265.24C149.514 265.21 135.954 265.47 122.784 263.6C91.9244 259.22 62.5744 242.37 40.9944 220.29C-1.37557 176.95 -12.4156 109.13 14.9944 54.74C25.7444 33.38 45.4944 12.61 65.7944 0Z" sodipodi:nodetypes="ccccccccccccccccc"/>
</svg>
