<svg xmlns="http://www.w3.org/2000/svg" viewBox="0 0 1284.48 484.56">
<path fill="#292e31" fill-rule="evenodd" d="M438.303 285.184C410.713 330.084 344.233 335.314 304.483 303.964C277.013 282.294 264.333 245.714 263.973 211.604C263.623 178.524 272.383 144.284 296.823 120.634C335.603 83.1044 407.063 86.7844 438.303 131.704C440.753 125.254 439.073 110.144 439.113 102.604C439.183 84.9344 439.123 67.2744 439.173 49.6044C439.193 40.5044 438.063 30.5644 439.833 21.6144C443.703 1.94438 467.203 -5.99562 483.483 4.94438C493.733 11.8244 494.053 23.4444 494.033 34.6044C494.013 50.9344 494.003 67.2744 494.013 83.6044C494.023 131.604 494.053 179.604 494.013 227.604C494.003 243.274 493.993 258.934 494.003 274.604C494.013 282.894 494.523 291.334 493.943 299.604C492.393 321.544 462.833 330.634 447.333 316.094C442.543 311.604 439.883 305.074 439.443 298.604C439.163 294.584 440.453 288.284 438.303 285.184ZM229.173 235.064C167.553 235.064 105.923 235.064 44.3034 235.064C44.4534 227.814 48.2034 219.744 51.6534 213.454C63.7534 191.434 86.5634 177.144 111.493 174.514C123.613 173.234 136.133 174.024 148.303 174.044C153.293 174.054 158.553 174.434 163.463 173.604C151.783 144.954 119.833 124.424 89.3034 123.764C67.6834 123.284 45.9934 131.594 29.2134 145.034C20.4234 152.084 12.6334 161.484 8.0934 171.854C6.0234 176.564 5.1334 181.604 3.3034 186.354C-0.526603 175.774 -0.346603 159.814 0.503397 148.604C3.4634 109.754 23.5034 75.6244 62.4634 64.3444C72.3734 61.4844 83.0434 60.8344 93.3034 61.0344C182.503 62.7444 248.133 148.334 229.173 235.064ZM1063.3 287.394C1056.4 298.994 1048.37 308.744 1036.14 314.954C991.493 337.644 925.903 313.824 921.823 259.604C921.303 252.674 921.523 245.464 922.963 238.654C931.643 197.684 981.943 192.284 1016.3 191.174C1023.3 190.954 1030.3 190.704 1037.3 190.434C1045.96 190.114 1054.65 190.424 1063.3 189.964C1064.21 183.044 1063.64 175.544 1062.56 168.644C1061.78 163.704 1060.1 159.084 1059.05 154.324C1058.38 151.034 1058.29 147.284 1058.29 143.784C1058.29 108.854 1058.29 73.9044 1058.31 38.9644C1058.33 28.1244 1058.68 16.6944 1056.02 6.14438C1052.5 -7.96562 1035.78 -9.82562 1025.51 -1.77562C1020.75 1.93438 1017.76 7.70438 1017.21 13.1944C1015.54 30.1644 1016.85 47.3944 1016.69 64.5044C1016.58 77.3844 1016.51 90.2644 1016.55 103.154C1016.57 110.414 1017.79 119.544 1013.18 125.804C1008.63 131.974 997.993 130.684 990.303 131.834C978.273 133.634 966.143 135.504 954.113 137.364C949.703 138.054 946.703 139.944 944.633 143.634C942.083 148.164 941.773 153.694 941.713 158.794C939.733 315.444 1061.66 317.314 1063.3 287.394Z"/>
</svg>
