<svg xmlns="http://www.w3.org/2000/svg" width="1668" height="629" viewBox="0 0 1668 629">
<g>
<path d="M 420.00 440.40 C420.00,441.85 413.89,441.99 353.25,441.86 C316.54,441.78 283.12,441.39 279.00,440.99 C266.38,439.77 248.77,434.32 234.50,427.22 C209.83,414.93 186.16,391.74 173.77,367.73 C168.92,358.31 164.35,345.72 161.72,334.50 C158.78,321.97 158.58,290.71 161.37,278.00 C166.93,252.66 180.36,228.07 197.12,212.55 C203.15,206.96 217.13,196.00 218.22,196.00 C218.51,196.00 215.88,201.74 212.38,208.75 C208.56,216.37 204.90,225.52 203.26,231.50 C200.72,240.79 200.52,242.87 200.51,261.00 C200.50,281.96 201.61,289.92 206.65,305.00 C212.47,322.42 226.22,345.02 238.82,357.89 C249.62,368.91 259.49,374.75 275.50,379.59 C284.29,382.24 285.30,382.32 319.50,383.02 C351.27,383.66 355.19,383.93 362.00,385.91 C379.96,391.14 395.12,401.65 406.35,416.67 C413.23,425.86 420.00,437.63 420.00,440.40 Z" fill="rgb(10,215,217)"/>
<path d="M 569.68 416.95 C556.44,418.73 540.06,417.34 528.50,413.48 C518.17,410.02 504.22,401.86 496.50,394.74 C475.86,375.73 464.95,349.17 463.31,314.00 C461.71,279.56 473.74,246.15 494.60,227.08 C514.36,209.03 543.00,200.96 572.68,205.09 C591.58,207.72 609.78,217.53 620.73,231.01 C623.35,234.24 625.82,236.91 626.22,236.94 C626.61,236.97 627.06,213.49 627.22,184.75 C627.50,133.16 627.53,132.45 629.69,128.41 C632.82,122.56 638.13,118.31 644.68,116.40 C658.16,112.49 671.75,117.97 676.45,129.22 C677.82,132.52 678.00,147.98 678.00,266.15 C678.00,399.23 678.00,399.37 675.91,403.69 C669.22,417.51 648.25,421.29 635.72,410.93 C630.01,406.21 627.73,400.94 627.20,391.21 C626.95,386.65 626.42,383.05 626.01,383.21 C625.61,383.37 622.75,386.49 619.67,390.15 C607.17,404.93 589.77,414.26 569.68,416.95 ZM 808.99 415.41 C792.94,420.18 780.77,413.32 772.75,395.00 C767.54,383.08 737.09,311.45 734.92,306.00 C733.93,303.52 726.79,286.65 719.04,268.50 C711.29,250.35 704.69,233.70 704.37,231.49 C703.62,226.24 705.29,220.28 708.92,215.26 C715.05,206.81 730.72,202.57 740.26,206.79 C746.46,209.53 749.75,214.38 755.50,229.23 C762.36,246.92 801.26,344.42 801.66,344.92 C802.33,345.74 803.22,344.03 807.69,333.34 C810.19,327.38 814.02,318.23 816.22,313.00 C818.42,307.77 822.81,297.20 825.99,289.50 C840.10,255.31 854.92,220.05 856.31,217.39 C859.99,210.34 867.59,205.89 876.99,205.27 C882.66,204.90 884.21,205.20 889.00,207.67 C895.82,211.18 899.36,216.21 904.87,230.25 C911.72,247.68 931.26,295.38 941.23,319.00 C946.45,331.38 951.04,342.51 951.43,343.75 C951.82,344.99 952.44,346.00 952.82,346.00 C953.20,346.00 954.76,342.74 956.30,338.75 C957.83,334.76 969.29,305.85 981.75,274.50 C1002.61,222.07 1004.78,217.12 1008.80,212.80 C1014.30,206.90 1019.98,204.58 1027.43,205.20 C1034.76,205.81 1041.49,210.00 1045.47,216.44 C1048.03,220.59 1048.49,222.34 1048.50,227.92 C1048.50,228.33 1048.50,228.71 1048.51,229.06 C1048.52,229.59 1048.52,230.08 1048.51,230.56 C1048.37,235.34 1046.20,240.07 1022.50,295.00 C1015.73,310.67 1002.65,341.27 993.42,363.00 C977.08,401.48 976.50,402.65 971.07,408.15 C961.86,417.50 951.22,419.26 939.28,413.43 C930.16,408.98 928.91,406.74 909.52,360.29 C884.12,299.47 876.25,281.44 875.32,281.94 C874.87,282.18 865.90,303.56 855.39,329.44 C823.99,406.78 826.27,401.72 819.92,408.16 C815.64,412.51 813.09,414.19 808.99,415.41 ZM 1169.75 414.96 C1149.85,419.99 1132.22,417.75 1112.50,407.69 C1101.29,401.97 1089.40,390.15 1084.52,379.87 C1075.83,361.59 1075.88,338.91 1084.63,324.34 C1089.06,316.95 1092.06,313.81 1099.26,308.99 C1114.60,298.73 1138.25,294.31 1184.00,293.16 L 1210.50 292.50 L 1210.82 288.05 C1211.23,282.25 1209.37,268.46 1207.40,262.67 C1205.24,256.32 1199.14,249.75 1192.79,246.93 C1188.35,244.96 1185.42,244.52 1174.62,244.19 C1156.57,243.63 1145.39,246.11 1119.15,256.48 C1103.64,262.60 1099.74,263.11 1093.79,259.76 C1081.56,252.89 1081.61,234.44 1093.88,225.44 C1099.75,221.14 1113.98,214.85 1125.15,211.62 C1162.57,200.81 1198.67,201.55 1223.88,213.64 C1229.59,216.38 1233.40,219.20 1239.09,224.90 C1248.06,233.88 1252.63,242.34 1256.71,257.50 L 1259.40 267.50 L 1259.77 331.48 C1260.03,378.18 1259.82,396.58 1258.97,399.62 C1255.16,413.20 1238.23,420.05 1224.38,413.60 C1215.77,409.59 1211.92,403.07 1211.05,391.00 L 1210.43 382.50 L 1208.07 387.32 C1206.78,389.97 1202.74,395.19 1199.11,398.92 C1191.50,406.72 1182.17,411.82 1169.75,414.96 ZM 1370.73 490.54 C1358.24,496.36 1343.79,491.34 1338.26,479.26 C1334.13,470.24 1334.77,467.98 1350.45,435.75 C1358.00,420.21 1364.86,405.70 1365.68,403.50 L 1367.17 399.50 L 1338.96 341.50 C1334.44,332.21 1330.31,323.73 1326.54,315.98 C1288.58,238.00 1286.74,234.21 1286.90,230.51 C1286.93,229.95 1287.00,229.39 1287.00,228.59 C1287.00,220.96 1289.79,215.07 1295.32,211.00 C1300.12,207.46 1307.58,205.00 1313.43,205.01 C1326.48,205.02 1331.59,210.09 1342.16,233.53 C1379.61,316.57 1394.21,347.64 1395.53,347.11 C1396.44,346.75 1407.28,323.93 1436.65,260.54 C1443.52,245.70 1450.79,229.73 1452.82,225.04 C1458.88,210.99 1466.20,205.02 1477.38,205.01 C1486.36,204.99 1495.08,210.31 1499.14,218.27 C1500.80,221.53 1501.12,223.61 1500.76,228.91 C1500.35,234.85 1499.20,237.74 1489.17,258.21 C1483.05,270.70 1472.47,292.52 1465.65,306.71 C1458.84,320.89 1444.35,350.73 1433.46,373.00 C1422.57,395.27 1406.63,428.23 1398.04,446.23 C1389.44,464.23 1380.96,481.02 1379.19,483.54 C1376.96,486.70 1374.35,488.86 1370.73,490.54 ZM 432.14 328.25 L 430.77 335.00 L 257.74 335.00 L 258.30 330.75 C258.61,328.41 261.17,321.93 263.99,316.35 C271.90,300.67 283.59,289.97 300.04,283.33 C311.17,278.83 317.72,278.04 343.69,278.02 C358.89,278.01 368.11,277.62 368.51,276.99 C369.32,275.67 363.35,265.92 357.67,259.29 C329.00,225.83 283.01,221.62 245.99,249.07 C233.91,258.02 224.05,271.96 220.88,284.57 C219.75,289.03 219.61,289.19 218.71,286.93 C217.16,283.05 216.61,252.49 217.93,244.00 C223.40,208.79 244.81,183.15 275.50,175.05 C297.03,169.36 328.23,172.20 352.02,182.01 C391.71,198.38 421.84,235.92 431.65,281.23 C433.89,291.59 434.17,318.19 432.14,328.25 ZM 555.37 375.09 C564.82,377.65 581.68,377.18 590.35,374.11 C615.74,365.12 628.83,339.20 626.50,302.52 C625.18,281.77 619.55,267.43 608.80,257.48 C601.72,250.92 599.53,249.71 589.87,247.02 C574.22,242.66 557.03,243.63 544.32,249.61 C531.89,255.46 520.95,270.30 516.40,287.50 C513.64,297.93 513.87,322.53 516.83,333.38 C523.08,356.26 535.50,369.69 555.37,375.09 ZM 1153.50 378.59 C1168.25,382.25 1184.77,377.39 1196.08,366.08 C1205.33,356.83 1209.34,346.85 1210.62,329.90 L 1211.29 321.00 L 1197.39 321.01 C1182.11,321.02 1162.55,322.43 1154.00,324.15 C1136.41,327.66 1127.69,338.02 1129.29,353.50 C1129.95,359.89 1132.03,364.25 1136.86,369.33 C1141.15,373.85 1146.59,376.88 1153.50,378.59 Z" fill="rgb(42,47,50)"/>
<path d="M 1214.22 404.25 C1212.84,401.88 1211.89,399.19 1211.51,396.22 C1211.19,393.63 1210.60,390.24 1210.21,388.70 C1209.50,385.91 1209.48,385.93 1205.02,392.07 C1197.31,402.68 1187.61,409.53 1174.28,413.69 C1184.48,410.50 1192.45,405.74 1199.11,398.92 C1202.74,395.19 1206.78,389.97 1208.07,387.32 L 1210.43 382.50 L 1211.05 391.00 C1211.45,396.46 1212.45,400.78 1214.22,404.25 ZM 1254.20 408.12 C1249.67,413.22 1243.51,415.70 1237.27,415.99 C1243.82,415.55 1249.99,412.72 1254.20,408.12 ZM 1259.71 386.96 C1259.91,376.42 1259.92,358.79 1259.77,331.48 C1259.93,359.80 1260.02,376.58 1259.71,386.96 ZM 1257.85 402.66 C1257.25,404.24 1256.49,405.33 1255.53,406.53 C1256.43,405.34 1257.21,404.05 1257.85,402.66 Z" fill="rgb(190,191,194)"/>
<path d="M 0.00 314.50 L 0.00 0.00 L 834.00 0.00 L 1668.00 0.00 L 1668.00 314.50 L 1668.00 629.00 L 834.00 629.00 L 0.00 629.00 L 0.00 314.50 ZM 1370.73 490.54 C1374.35,488.86 1376.96,486.70 1379.19,483.54 C1380.96,481.02 1389.44,464.23 1398.04,446.23 C1406.63,428.23 1422.57,395.27 1433.46,373.00 C1444.35,350.73 1458.84,320.89 1465.65,306.71 C1472.47,292.52 1483.05,270.70 1489.17,258.21 C1499.20,237.74 1500.35,234.85 1500.76,228.91 C1501.12,223.61 1500.80,221.53 1499.14,218.27 C1495.08,210.31 1486.36,204.99 1477.38,205.01 C1466.20,205.02 1458.88,210.99 1452.82,225.04 C1450.79,229.73 1443.52,245.70 1436.65,260.54 C1407.28,323.93 1396.44,346.75 1395.53,347.11 C1394.21,347.64 1379.61,316.57 1342.16,233.53 C1331.59,210.09 1326.48,205.02 1313.43,205.01 C1307.58,205.00 1300.12,207.46 1295.32,211.00 C1289.79,215.07 1287.00,220.96 1287.00,228.59 C1287.00,235.28 1282.13,224.69 1338.96,341.50 L 1367.17 399.50 L 1365.68 403.50 C1364.86,405.70 1358.00,420.21 1350.45,435.75 C1334.77,467.98 1334.13,470.24 1338.26,479.26 C1343.79,491.34 1358.24,496.36 1370.73,490.54 ZM 420.00 440.40 C420.00,437.63 413.23,425.86 406.35,416.67 C395.12,401.65 379.96,391.14 362.00,385.91 C355.19,383.93 351.27,383.66 319.50,383.02 C285.30,382.32 284.29,382.24 275.50,379.59 C259.49,374.75 249.62,368.91 238.82,357.89 C226.22,345.02 212.47,322.42 206.65,305.00 C201.61,289.92 200.50,281.96 200.51,261.00 C200.52,242.87 200.72,240.79 203.26,231.50 C204.90,225.52 208.56,216.37 212.38,208.75 C215.88,201.74 218.51,196.00 218.22,196.00 C217.13,196.00 203.15,206.96 197.12,212.55 C180.36,228.07 166.93,252.66 161.37,278.00 C158.58,290.71 158.78,321.97 161.72,334.50 C164.35,345.72 168.92,358.31 173.77,367.73 C186.16,391.74 209.83,414.93 234.50,427.22 C248.77,434.32 266.38,439.77 279.00,440.99 C283.12,441.39 316.54,441.78 353.25,441.86 C413.89,441.99 420.00,441.85 420.00,440.40 ZM 569.68 416.95 C589.77,414.26 607.17,404.93 619.67,390.15 C622.75,386.49 625.61,383.37 626.01,383.21 C626.42,383.05 626.95,386.65 627.20,391.21 C627.73,400.94 630.01,406.21 635.72,410.93 C648.25,421.29 669.22,417.51 675.91,403.69 C678.00,399.37 678.00,399.23 678.00,266.15 C678.00,147.98 677.82,132.52 676.45,129.22 C671.75,117.97 658.16,112.49 644.68,116.40 C638.13,118.31 632.82,122.56 629.69,128.41 C627.53,132.45 627.50,133.16 627.22,184.75 C627.06,213.49 626.61,236.97 626.22,236.94 C625.82,236.91 623.35,234.24 620.73,231.01 C609.78,217.53 591.58,207.72 572.68,205.09 C543.00,200.96 514.36,209.03 494.60,227.08 C473.74,246.15 461.71,279.56 463.31,314.00 C464.95,349.17 475.86,375.73 496.50,394.74 C504.22,401.86 518.17,410.02 528.50,413.48 C540.06,417.34 556.44,418.73 569.68,416.95 ZM 1169.75 414.96 C1185.46,410.99 1196.47,403.84 1205.02,392.07 C1209.48,385.93 1209.50,385.91 1210.21,388.70 C1210.60,390.24 1211.19,393.63 1211.51,396.22 C1214.02,415.98 1241.82,423.18 1254.80,407.43 C1260.15,400.94 1260.16,400.71 1259.77,331.48 L 1259.40 267.50 L 1256.71 257.50 C1252.63,242.34 1248.06,233.88 1239.09,224.90 C1233.40,219.20 1229.59,216.38 1223.88,213.64 C1198.67,201.55 1162.57,200.81 1125.15,211.62 C1113.98,214.85 1099.75,221.14 1093.88,225.44 C1081.61,234.44 1081.56,252.89 1093.79,259.76 C1099.74,263.11 1103.64,262.60 1119.15,256.48 C1145.39,246.11 1156.57,243.63 1174.62,244.19 C1185.42,244.52 1188.35,244.96 1192.79,246.93 C1199.14,249.75 1205.24,256.32 1207.40,262.67 C1209.37,268.46 1211.23,282.25 1210.82,288.05 L 1210.50 292.50 L 1184.00 293.16 C1138.25,294.31 1114.60,298.73 1099.26,308.99 C1092.06,313.81 1089.06,316.95 1084.63,324.34 C1075.88,338.91 1075.83,361.59 1084.52,379.87 C1089.40,390.15 1101.29,401.97 1112.50,407.69 C1132.22,417.75 1149.85,419.99 1169.75,414.96 ZM 808.99 415.41 C813.09,414.19 815.64,412.51 819.92,408.16 C826.27,401.72 823.99,406.78 855.39,329.44 C865.90,303.56 874.87,282.18 875.32,281.94 C876.25,281.44 884.12,299.47 909.52,360.29 C928.91,406.74 930.16,408.98 939.28,413.43 C951.22,419.26 961.86,417.50 971.07,408.15 C976.50,402.65 977.08,401.48 993.42,363.00 C1002.65,341.27 1015.73,310.67 1022.50,295.00 C1050.16,230.88 1048.50,235.16 1048.50,227.92 C1048.49,222.34 1048.03,220.59 1045.47,216.44 C1041.49,210.00 1034.76,205.81 1027.43,205.20 C1019.98,204.58 1014.30,206.90 1008.80,212.80 C1004.78,217.12 1002.61,222.07 981.75,274.50 C969.29,305.85 957.83,334.76 956.30,338.75 C954.76,342.74 953.20,346.00 952.82,346.00 C952.44,346.00 951.82,344.99 951.43,343.75 C951.04,342.51 946.45,331.38 941.23,319.00 C931.26,295.38 911.72,247.68 904.87,230.25 C899.36,216.21 895.82,211.18 889.00,207.67 C884.21,205.20 882.66,204.90 876.99,205.27 C867.59,205.89 859.99,210.34 856.31,217.39 C854.92,220.05 840.10,255.31 825.99,289.50 C822.81,297.20 818.42,307.77 816.22,313.00 C814.02,318.23 810.19,327.38 807.69,333.34 C803.22,344.03 802.33,345.74 801.66,344.92 C801.26,344.42 762.36,246.92 755.50,229.23 C749.75,214.38 746.46,209.53 740.26,206.79 C730.72,202.57 715.05,206.81 708.92,215.26 C705.29,220.28 703.62,226.24 704.37,231.49 C704.69,233.70 711.29,250.35 719.04,268.50 C726.79,286.65 733.93,303.52 734.92,306.00 C737.09,311.45 767.54,383.08 772.75,395.00 C780.77,413.32 792.94,420.18 808.99,415.41 ZM 432.14 328.25 C434.17,318.19 433.89,291.59 431.65,281.23 C421.84,235.92 391.71,198.38 352.02,182.01 C328.23,172.20 297.03,169.36 275.50,175.05 C244.81,183.15 223.40,208.79 217.93,244.00 C216.61,252.49 217.16,283.05 218.71,286.93 C219.61,289.19 219.75,289.03 220.88,284.57 C224.05,271.96 233.91,258.02 245.99,249.07 C283.01,221.62 329.00,225.83 357.67,259.29 C363.35,265.92 369.32,275.67 368.51,276.99 C368.11,277.62 358.89,278.01 343.69,278.02 C317.72,278.04 311.17,278.83 300.04,283.33 C283.59,289.97 271.90,300.67 263.99,316.35 C261.17,321.93 258.61,328.41 258.30,330.75 L 257.74 335.00 L 344.26 335.00 L 430.77 335.00 L 432.14 328.25 ZM 555.37 375.09 C535.50,369.69 523.08,356.26 516.83,333.38 C513.87,322.53 513.64,297.93 516.40,287.50 C520.95,270.30 531.89,255.46 544.32,249.61 C557.03,243.63 574.22,242.66 589.87,247.02 C599.53,249.71 601.72,250.92 608.80,257.48 C619.55,267.43 625.18,281.77 626.50,302.52 C628.83,339.20 615.74,365.12 590.35,374.11 C581.68,377.18 564.82,377.65 555.37,375.09 ZM 1153.50 378.59 C1146.59,376.88 1141.15,373.85 1136.86,369.33 C1132.03,364.25 1129.95,359.89 1129.29,353.50 C1127.69,338.02 1136.41,327.66 1154.00,324.15 C1162.55,322.43 1182.11,321.02 1197.39,321.01 L 1211.29 321.00 L 1210.62 329.90 C1209.34,346.85 1205.33,356.83 1196.08,366.08 C1184.77,377.39 1168.25,382.25 1153.50,378.59 Z" fill="rgb(253,253,253)"/>
</g>
</svg>